<?xml version="1.0" encoding="UTF-8" standalone="no"?>
<!DOCTYPE svg PUBLIC "-//W3C//DTD SVG 1.1//EN" "http://www.w3.org/Graphics/SVG/1.1/DTD/svg11.dtd">
<svg width="100%" height="100%" viewBox="0 0 285 95" version="1.1" xmlns="http://www.w3.org/2000/svg" xmlns:xlink="http://www.w3.org/1999/xlink" xml:space="preserve" xmlns:serif="http://www.serif.com/" style="fill-rule:evenodd;clip-rule:evenodd;stroke-linejoin:round;stroke-miterlimit:2;">
    <g transform="matrix(1,0,0,1,-128,-25.934)">
        <path id="path14" d="M229.858,103.254C230.616,104.731 230.215,106.06 228.659,107.25C227.532,107.865 226.191,108.031 224.631,107.742C223.073,107.457 221.67,106.861 220.42,105.959C220.831,106.368 221.16,106.81 221.405,107.281C221.856,108.04 221.978,108.891 221.774,109.834C221.589,110.797 221.107,111.533 220.33,112.045C219.037,112.62 218.186,112.505 217.778,111.706C217.449,110.99 217.585,110.418 218.177,109.987C218.752,109.762 219.181,109.903 219.47,110.418C219.652,110.846 219.479,111.226 218.945,111.554C219.091,111.697 219.456,111.594 220.052,111.246C220.893,110.427 220.965,109.351 220.267,108.017C219.612,107.077 218.884,106.657 218.085,106.761C217.266,106.841 216.518,107.117 215.84,107.589C215.288,108.017 214.877,108.705 214.612,109.65C214.529,111.329 213.853,112.6 212.583,113.46C210.778,114.567 208.463,114.391 205.637,112.936L204.128,112.169C201.71,110.775 199.725,109.955 198.165,109.708C196.63,110.038 195.819,111.104 195.738,112.907C195.267,112.126 195.226,111.453 195.615,110.878C196.006,110.283 196.529,109.863 197.184,109.618C196.486,109.556 195.667,109.535 194.723,109.556C193.37,109.618 192.081,109.852 190.851,110.262C187.019,111.861 185.124,113.79 185.164,116.041C185.142,117.045 185.533,117.855 186.332,118.471C187.108,119.065 187.97,119.279 188.914,119.115C189.816,118.85 190.422,118.275 190.727,117.393C191.015,116.533 190.851,115.806 190.236,115.213C189.641,114.78 189.138,114.71 188.73,114.998C188.812,115.038 188.873,115.1 188.914,115.181C189.057,115.509 188.954,115.788 188.606,116.01C188.238,116.196 187.95,116.135 187.746,115.828C187.643,115.622 187.654,115.417 187.777,115.213L187.809,115.213C187.827,115.172 187.838,115.15 187.838,115.15C188.103,114.802 188.577,114.587 189.253,114.503C189.929,114.405 190.584,114.811 191.219,115.734C191.792,117.004 191.403,118.12 190.052,119.083C188.7,120.046 187.162,120.213 185.441,119.577C183.903,118.758 183.31,117.507 183.658,115.828C184.006,114.146 185.142,112.608 187.068,111.217C190.9,108.469 195.655,108.13 201.333,110.202C203.34,111.082 205.163,111.841 206.804,112.476C208.422,113.112 210.093,113.071 211.813,112.353C213.227,111.738 213.882,110.663 213.783,109.124C213.741,108.143 213.453,107.149 212.921,106.145C212.387,105.139 211.352,104.432 209.814,104.022C207.991,103.84 206.433,104.383 205.145,105.654C204.119,107.126 203.966,108.357 204.682,109.342C205.421,110.306 206.312,110.703 207.356,110.539C209.202,109.946 210.001,109.228 209.756,108.388C209.673,108.491 209.57,108.584 209.448,108.664C208.977,108.871 208.607,108.777 208.342,108.388C208.155,107.957 208.279,107.598 208.71,107.313C208.894,107.21 209.069,107.18 209.231,107.221L209.354,107.221C209.354,107.221 209.376,107.23 209.417,107.25C209.97,107.291 210.216,107.845 210.153,108.911C209.765,110.101 208.824,110.887 207.327,111.277C206.097,111.545 205.105,111.372 204.346,110.757C203.587,110.142 203.147,109.472 203.023,108.758C202.817,107.095 203.331,105.712 204.561,104.608C206.076,103.38 207.776,102.969 209.662,103.38C212.571,104.423 214.181,106.042 214.489,108.233C214.94,107.068 215.667,106.175 216.671,105.559C217.694,105.027 218.556,104.821 219.252,104.945C219.908,105.07 220.635,104.945 221.437,104.576C221.906,104.351 222.377,103.9 222.851,103.224C223.32,102.527 223.412,101.472 223.127,100.057C224.194,100.347 224.898,100.847 225.247,101.564C225.781,102.978 225.298,104.188 223.801,105.191C223.064,105.539 222.173,105.726 221.129,105.744C223.363,106.996 225.39,107.18 227.213,106.298C228.587,105.047 228.926,103.581 228.23,101.903C229.027,102.23 229.573,102.679 229.858,103.254ZM171.178,111.217C173.082,112.608 174.211,114.146 174.559,115.828C174.907,117.507 174.312,118.758 172.774,119.577C171.075,120.213 169.549,120.046 168.194,119.083C166.843,118.12 166.455,117.004 167.03,115.734C167.642,114.811 168.289,114.405 168.965,114.503C169.64,114.607 170.112,114.822 170.379,115.15C170.399,115.172 170.419,115.191 170.442,115.213C170.583,115.417 170.604,115.622 170.5,115.828C170.276,116.135 169.98,116.196 169.611,116.01C169.261,115.788 169.158,115.509 169.304,115.181C169.344,115.1 169.407,115.038 169.488,114.998C169.099,114.71 168.596,114.78 167.981,115.213C167.366,115.806 167.213,116.533 167.521,117.393C167.806,118.275 168.412,118.85 169.335,119.115C170.276,119.279 171.138,119.065 171.915,118.471C172.693,117.855 173.082,117.045 173.082,116.041C173.104,113.79 171.209,111.861 167.396,110.262C166.147,109.852 164.845,109.618 163.493,109.556C162.551,109.535 161.74,109.556 161.067,109.618C161.722,109.863 162.243,110.283 162.631,110.878C163.022,111.453 162.979,112.126 162.508,112.907C162.409,111.104 161.588,110.038 160.05,109.708C158.494,109.935 156.505,110.757 154.087,112.169L152.581,112.936C149.752,114.373 147.447,114.546 145.666,113.46C144.395,112.6 143.709,111.329 143.605,109.65C143.36,108.705 142.959,108.017 142.406,107.589C141.71,107.117 140.96,106.841 140.164,106.761C139.342,106.657 138.614,107.077 137.982,108.017C137.283,109.351 137.355,110.427 138.195,111.246C138.767,111.594 139.138,111.697 139.302,111.554C138.749,111.226 138.574,110.846 138.78,110.418C139.048,109.903 139.466,109.762 140.038,109.987C140.635,110.395 140.779,110.97 140.471,111.706C140.038,112.505 139.178,112.62 137.887,112.045C137.108,111.533 136.628,110.797 136.444,109.834C136.26,108.891 136.381,108.04 136.812,107.281C137.077,106.81 137.407,106.368 137.795,105.959C136.567,106.861 135.173,107.457 133.615,107.742C132.059,108.049 130.703,107.885 129.559,107.25C128.023,106.083 127.621,104.749 128.357,103.254C128.665,102.679 129.21,102.23 129.99,101.903C129.291,103.581 129.641,105.047 131.033,106.298C132.836,107.18 134.865,106.996 137.12,105.744C136.055,105.726 135.162,105.539 134.445,105.191C132.928,104.188 132.438,102.978 132.968,101.564C133.317,100.847 134.026,100.347 135.092,100.057C134.803,101.472 134.906,102.527 135.4,103.224C135.869,103.9 136.34,104.351 136.812,104.576C137.591,104.945 138.318,105.07 138.994,104.945C139.672,104.821 140.532,105.027 141.576,105.559C142.582,106.175 143.298,107.068 143.726,108.233C144.056,106.042 145.666,104.423 148.553,103.38C150.439,102.986 152.139,103.398 153.658,104.608C154.906,105.712 155.429,107.095 155.225,108.758C155.1,109.472 154.662,110.142 153.903,110.757C153.144,111.372 152.152,111.545 150.921,111.277C149.427,110.909 148.481,110.119 148.093,108.911C148.012,107.845 148.257,107.291 148.829,107.25C148.852,107.23 148.872,107.221 148.892,107.221L148.984,107.221C149.168,107.198 149.343,107.23 149.508,107.313C149.939,107.598 150.059,107.957 149.875,108.388C149.608,108.777 149.24,108.871 148.771,108.664C148.645,108.584 148.544,108.491 148.463,108.388C148.216,109.228 149.016,109.946 150.859,110.539C151.905,110.703 152.796,110.306 153.535,109.342C154.271,108.379 154.118,107.149 153.075,105.654C151.782,104.383 150.235,103.84 148.432,104.022C146.894,104.415 145.85,105.119 145.295,106.145C144.762,107.169 144.476,108.161 144.436,109.124C144.355,110.685 145.01,111.76 146.402,112.353C148.124,113.071 149.806,113.112 151.443,112.476C153.061,111.841 154.886,111.082 156.916,110.202C162.571,108.13 167.325,108.469 171.178,111.217ZM174.407,25.977C176.926,26.756 178.268,28.069 178.434,29.912C178.616,31.409 178.196,32.577 177.172,33.417C175.881,34.339 174.13,34.339 171.915,33.417L170.718,32.925C168.832,32.003 167.283,31.5 166.075,31.419C164.948,31.746 164.394,32.595 164.416,33.969C163.842,32.781 164.149,31.922 165.339,31.387C164.805,31.387 164.181,31.428 163.462,31.511C162.459,31.632 161.496,31.879 160.573,32.247C157.785,33.684 156.474,35.251 156.637,36.953C156.985,38.589 157.991,39.289 159.652,39.041C160.308,38.776 160.728,38.313 160.912,37.657C161.075,36.984 160.912,36.438 160.42,36.03C159.928,35.742 159.549,35.714 159.282,35.935C159.345,35.958 159.385,35.999 159.403,36.061C159.529,36.306 159.475,36.522 159.251,36.706C158.966,36.869 158.739,36.849 158.575,36.645C158.471,36.481 158.471,36.315 158.575,36.151C158.595,36.131 158.606,36.111 158.606,36.091C158.788,35.823 159.138,35.642 159.652,35.538C160.144,35.435 160.656,35.714 161.188,36.369C161.679,37.292 161.442,38.149 160.481,38.95C159.518,39.75 158.382,39.963 157.071,39.595C155.84,39.063 155.317,38.149 155.501,36.858C155.665,35.57 156.433,34.349 157.807,33.201C160.532,30.904 164.1,30.375 168.502,31.603C170.062,32.157 171.477,32.627 172.747,33.015C174.016,33.408 175.275,33.273 176.526,32.618C177.551,32.083 177.98,31.235 177.819,30.067C177.819,28.363 176.721,27.155 174.528,26.439C173.154,26.419 172.018,26.922 171.115,27.943C170.419,29.133 170.379,30.076 170.994,30.772C171.587,31.45 172.274,31.695 173.053,31.511C174.407,30.958 174.968,30.375 174.746,29.759C174.682,29.841 174.611,29.912 174.528,29.973C174.2,30.159 173.912,30.116 173.668,29.851C173.504,29.522 173.576,29.246 173.884,29.019C174.027,28.938 174.159,28.897 174.283,28.897L174.407,28.897C174.835,28.92 175.062,29.326 175.08,30.128C174.835,31.048 174.171,31.695 173.082,32.065C171.156,32.31 170.02,31.758 169.671,30.404C169.425,29.174 169.742,28.109 170.624,27.207C171.69,26.204 172.95,25.793 174.407,25.977ZM183.842,25.977C185.277,25.793 186.538,26.204 187.623,27.207C188.483,28.109 188.79,29.174 188.545,30.404C188.198,31.758 187.068,32.31 185.164,32.065C184.058,31.695 183.393,31.048 183.166,30.128C183.166,29.326 183.38,28.92 183.813,28.897L183.934,28.897C184.078,28.897 184.21,28.938 184.334,29.019C184.641,29.246 184.713,29.522 184.549,29.851C184.325,30.116 184.035,30.159 183.687,29.973C183.607,29.912 183.535,29.841 183.474,29.759C183.247,30.375 183.813,30.958 185.164,31.511C185.943,31.695 186.639,31.45 187.254,30.772C187.849,30.076 187.796,29.133 187.1,27.943C186.219,26.922 185.084,26.419 183.687,26.439C181.494,27.155 180.4,28.363 180.4,30.067C180.237,31.235 180.677,32.083 181.72,32.618C182.971,33.273 184.222,33.408 185.472,33.015C186.743,32.627 188.166,32.157 189.744,31.603C194.129,30.375 197.696,30.904 200.44,33.201C201.795,34.349 202.563,35.57 202.745,36.858C202.911,38.149 202.388,39.063 201.18,39.595C199.846,39.963 198.699,39.75 197.737,38.95C196.773,38.149 196.546,37.292 197.058,36.369C197.572,35.714 198.084,35.435 198.596,35.538C199.088,35.642 199.427,35.823 199.611,36.091C199.631,36.111 199.642,36.131 199.642,36.151L199.672,36.151C199.754,36.315 199.754,36.481 199.672,36.645C199.49,36.849 199.263,36.869 198.996,36.706C198.749,36.522 198.688,36.306 198.812,36.061C198.852,35.999 198.904,35.958 198.964,35.935C198.679,35.714 198.288,35.742 197.799,36.03C197.306,36.438 197.153,36.984 197.337,37.657C197.5,38.313 197.921,38.776 198.596,39.041C200.235,39.289 201.238,38.589 201.609,36.953C201.753,35.251 200.43,33.684 197.644,32.247C196.722,31.879 195.758,31.632 194.753,31.511C194.037,31.428 193.424,31.387 192.91,31.387C194.079,31.922 194.376,32.781 193.803,33.969C193.844,32.595 193.289,31.746 192.139,31.419C190.952,31.5 189.405,32.003 187.502,32.925L186.332,33.417C184.12,34.339 182.367,34.339 181.074,33.417C180.03,32.577 179.61,31.409 179.817,29.912C179.978,28.069 181.321,26.756 183.842,25.977ZM179.107,109.219C168.657,108.951 159.949,105.346 152.98,98.398C146.032,91.432 142.429,82.721 142.162,72.271C142.429,61.818 146.032,53.11 152.98,46.141C159.949,39.195 168.657,35.588 179.107,35.32C189.558,35.588 198.268,39.195 205.234,46.141C212.183,53.11 215.791,61.818 216.058,72.271C215.791,82.721 212.183,91.432 205.234,98.398C198.268,105.346 189.558,108.951 179.107,109.219ZM179.107,36.797C169.068,37.042 160.705,40.506 154.024,47.187C147.345,53.868 143.881,62.229 143.637,72.271C143.881,82.31 147.345,90.673 154.024,97.354C160.705,104.035 169.068,107.497 179.107,107.742C189.152,107.497 197.51,104.035 204.191,97.354C210.872,90.673 214.336,82.31 214.58,72.271C214.336,62.229 210.872,53.868 204.191,47.187C197.51,40.506 189.152,37.042 179.107,36.797ZM175.45,92.804C176.865,97.167 177.653,101.574 177.819,106.02C177.489,106.02 177.164,106.001 176.833,105.959C176.73,103.398 176.463,100.867 176.034,98.366C175.706,96.604 175.255,94.833 174.682,93.05L173.852,90.59L172.747,86.962C172.601,86.369 172.541,85.763 172.561,85.148C172.541,84.144 172.673,83.161 172.961,82.198C173.533,80.746 174.353,79.452 175.419,78.325C176.753,77.262 177.417,75.959 177.417,74.421C176.146,73.521 174.968,72.475 173.884,71.285C173.349,70.037 172.929,68.757 172.622,67.444L172.593,67.444L172.254,67.475C172.909,69.503 173.216,70.866 173.176,71.564C172.992,72.075 172.386,72.424 171.362,72.61C170.339,72.812 169.508,72.823 168.873,72.639C167.562,71.963 166.547,70.558 165.831,68.428C165.79,68.364 165.759,68.315 165.736,68.275L165.552,67.722L165.121,67.752L166.32,71.164L167.396,73.622L169.549,76.635C169.589,76.678 169.611,76.727 169.611,76.79L169.519,79.493L169.117,82.351L168.258,85.455L166.722,88.747L166.722,88.715L161.248,98.858C160.981,99.392 160.728,99.924 160.481,100.459C157.839,98.696 155.479,96.604 153.409,94.186C155.09,92.527 157.098,91.061 159.435,89.79L157.284,87.761L154.765,85.611L153.596,84.474C152.387,83.244 151.443,81.83 150.769,80.232C150.769,80.191 150.787,80.139 150.827,80.077L154.056,75.62C156.66,72.116 159.886,69.382 163.738,67.415C164.742,67.022 165.767,66.849 166.812,66.892C166.834,66.728 166.854,66.34 166.874,65.724C166.915,65.109 166.935,64.761 166.935,64.676C161.956,63.224 159.167,61.082 158.575,58.253C157.98,55.426 158.566,52.977 160.326,50.907C161.781,49.347 163.729,48.415 166.167,48.11C168.605,47.803 170.563,48.479 172.038,50.137C173.904,50.384 175.031,51.46 175.419,53.365C175.789,55.292 175.706,57.281 175.174,59.328C174.66,61.398 173.986,62.772 173.145,63.448C174.09,61.87 174.528,60.118 174.465,58.192C174.323,59.319 174.016,60.395 173.545,61.421C173.277,62.177 172.837,62.793 172.222,63.264C171.731,63.468 171.219,63.488 170.686,63.325L170.87,67.136L171.609,67.076L172.561,66.982C173.113,66.982 173.647,67.085 174.159,67.289L174.559,67.505L175.235,68.057L175.789,68.643C177.141,69.79 178.474,71.049 179.785,72.424L179.817,72.455L183.595,76.049L187.623,71.193L189.776,68.735L192.139,66.521L193.033,65.693L193.709,65.109C189.241,64.636 186.864,63.828 186.579,62.678C186.68,61.921 187.89,61.286 190.204,60.774L190.204,56.625C191.25,55.824 193.433,55.364 196.751,55.24C196.773,55.119 196.791,54.993 196.814,54.872C196.917,54.686 197.058,54.627 197.245,54.686C197.388,54.421 197.613,54.248 197.921,54.165C198.803,54.044 199.346,54.41 199.548,55.272C202.029,55.355 204.119,55.671 205.818,56.223C206.272,56.471 206.497,56.726 206.497,56.991L206.497,60.711C209.017,61.225 210.34,61.881 210.461,62.678C210.216,63.744 208.095,64.524 204.101,65.015C204.242,65.201 203.863,65.498 202.96,65.906C202.305,66.317 201.917,66.553 201.795,66.616C201.692,66.674 201.261,66.84 200.502,67.107C200.073,67.352 199.622,67.516 199.15,67.597L194.847,67.229C194.703,67.208 194.571,67.22 194.445,67.26L194.324,67.289L194.111,67.415L193.861,67.597L190.449,73.685L188.606,76.759C188.116,77.578 187.511,78.509 186.792,79.556C186.056,80.62 185.214,81.36 184.273,81.767C184.13,81.81 183.986,81.81 183.842,81.767L177.264,77.003L177.264,76.972C176.589,77.958 175.758,79.001 174.772,80.108L174.036,81.338L173.576,82.413L173.329,83.368L173.237,85.119L173.421,86.78L174.005,88.563L174.59,90.343L175.45,92.804ZM164.813,87.209C165,82.784 164.282,78.501 162.663,74.359L155.439,80.508L161.004,87.761L161.556,88.439L161.803,88.715C162.03,88.635 162.243,88.551 162.45,88.47L164.813,87.209ZM242.114,54.355C242.114,57.911 241.156,60.69 239.241,62.688C237.33,64.682 234.627,65.678 231.131,65.678C228.772,65.678 226.646,65.185 224.755,64.197C222.863,63.205 221.393,61.848 220.347,60.129C219.305,58.412 218.784,56.492 218.784,54.373C218.784,52.249 219.298,50.329 220.328,48.617C221.363,46.899 222.791,45.55 224.612,44.567C226.43,43.579 228.46,43.085 230.7,43.085C232.106,43.085 233.538,43.278 234.993,43.66C236.452,44.044 237.669,44.555 238.639,45.195L239.258,49.578L238.98,49.578C238.549,47.835 237.545,46.475 235.972,45.491C234.396,44.51 232.649,44.019 230.727,44.019C227.973,44.019 225.681,44.998 223.848,46.955C222.021,48.909 221.11,51.364 221.11,54.328C221.11,57.287 222.055,59.765 223.947,61.763C225.838,63.757 228.314,64.754 231.374,64.754C234.438,64.754 236.937,63.761 238.872,61.772C240.805,59.785 241.773,57.064 241.773,53.609L242.087,53.609C242.105,53.856 242.114,54.104 242.114,54.355ZM264.573,64.933L264.824,64.933L264.824,65.247L257.838,65.247L257.838,64.933L258.116,64.933C258.552,64.933 258.879,64.796 259.095,64.52C259.31,64.239 259.418,63.977 259.418,63.73C259.418,63.478 259.378,63.231 259.302,62.985L257.308,57.704L248.93,57.704L246.856,63.012C246.77,63.263 246.73,63.51 246.73,63.748C246.73,63.981 246.837,64.239 247.053,64.52C247.268,64.796 247.594,64.933 248.031,64.933L248.31,64.933L248.31,65.247L242.069,65.247L242.069,64.933L242.356,64.933C242.87,64.933 243.376,64.769 243.874,64.439C244.37,64.112 244.774,63.627 245.086,62.985L252.1,46.282C252.865,44.607 253.249,43.541 253.249,43.085L253.527,43.085L261.843,62.985C262.13,63.627 262.521,64.112 263.019,64.439C263.515,64.769 264.034,64.933 264.573,64.933ZM249.307,56.779L256.94,56.779L253.213,46.812L249.307,56.779ZM280.582,46.282C280.582,45.786 280.405,45.357 280.052,44.998C279.697,44.634 279.284,44.441 278.813,44.423L272.913,44.423L272.913,63.012C272.931,63.55 273.13,64.006 273.514,64.377C273.896,64.749 274.359,64.933 274.898,64.933L275.302,64.933L275.302,65.247L268.504,65.247L268.504,64.933L268.908,64.933C269.447,64.933 269.907,64.749 270.291,64.377C270.672,64.006 270.875,63.564 270.893,63.047L270.893,44.423L265.002,44.423C264.503,44.441 264.086,44.634 263.744,44.998C263.403,45.357 263.233,45.786 263.233,46.282L263.233,46.812L262.918,46.848L262.918,42.932C263.228,43.058 263.767,43.184 264.534,43.309C265.3,43.43 266.003,43.489 266.645,43.489L277.133,43.489C278.144,43.489 278.986,43.415 279.657,43.264C280.333,43.11 280.743,42.999 280.887,42.932L280.887,46.848L280.582,46.812L280.582,46.282ZM283.716,64.933C284.255,64.933 284.715,64.744 285.099,64.367C285.481,63.986 285.682,63.523 285.7,62.985L285.7,45.599C285.7,45.103 285.503,44.683 285.108,44.342C284.717,44.001 284.255,43.83 283.716,43.83L283.348,43.83L283.312,43.525L292.408,43.525C293.048,43.525 293.746,43.462 294.501,43.336C295.255,43.211 295.787,43.09 296.099,42.968L296.099,46.874L295.794,46.874L295.794,46.318C295.794,45.821 295.623,45.397 295.282,45.043C294.941,44.69 294.53,44.504 294.052,44.486L287.721,44.486L287.721,54.077L292.965,54.077C293.378,54.054 293.728,53.897 294.016,53.609C294.308,53.322 294.456,52.96 294.456,52.523L294.456,52.092L294.77,52.092L294.77,56.995L294.456,56.995L294.456,56.528C294.456,56.115 294.315,55.764 294.034,55.477C293.758,55.185 293.414,55.028 293.001,55.01L287.721,55.01L287.721,64.286L292.157,64.286C293.688,64.286 294.86,63.946 295.668,63.263C296.476,62.581 297.145,61.566 297.68,60.219L297.994,60.219L296.198,65.247L283.312,65.247L283.312,64.933L283.716,64.933ZM307.284,44.486L305.299,44.486L305.299,62.985C305.299,63.523 305.49,63.986 305.874,64.367C306.255,64.744 306.727,64.933 307.284,64.933L307.661,64.933L307.688,65.247L300.89,65.247L300.89,64.933L301.294,64.933C301.833,64.933 302.293,64.749 302.677,64.377C303.059,64.006 303.261,63.55 303.278,63.012L303.278,45.788C303.261,45.249 303.059,44.789 302.677,44.405C302.293,44.024 301.833,43.83 301.294,43.83L300.89,43.83L300.89,43.525L309.268,43.525C311.154,43.525 312.631,44.05 313.704,45.097C314.782,46.138 315.32,47.492 315.32,49.155C315.32,50.821 314.809,52.26 313.785,53.475C312.761,54.685 311.515,55.289 310.05,55.289C310.36,55.432 310.725,55.717 311.145,56.142C311.569,56.569 311.949,57.008 312.285,57.462C314.064,60.008 315.222,61.575 315.761,62.167C316.3,62.755 316.681,63.155 316.91,63.371C317.137,63.586 317.386,63.8 317.656,64.008C317.925,64.212 318.19,64.377 318.455,64.502C319.058,64.789 319.703,64.933 320.385,64.933L320.385,65.247L318.679,65.247C317.786,65.247 316.957,65.09 316.192,64.771C315.424,64.448 314.849,64.116 314.468,63.775C314.084,63.434 313.751,63.106 313.471,62.787C313.195,62.464 312.424,61.393 311.163,59.572C309.899,57.747 309.163,56.705 308.954,56.447C308.75,56.191 308.534,55.94 308.307,55.693C307.647,54.988 306.987,54.633 306.323,54.633L306.323,54.319C306.489,54.344 306.709,54.355 306.978,54.355C307.248,54.355 307.576,54.344 307.966,54.319C310.534,54.26 312.146,53.185 312.806,51.095C312.932,50.682 312.995,50.296 312.995,49.937L312.995,49.236C312.952,47.849 312.591,46.73 311.908,45.887C311.226,45.038 310.305,44.58 309.151,44.513C308.653,44.495 308.031,44.486 307.284,44.486ZM321.418,64.933C321.957,64.933 322.417,64.744 322.801,64.367C323.183,63.986 323.385,63.523 323.403,62.985L323.403,45.599C323.403,45.103 323.205,44.683 322.81,44.342C322.419,44.001 321.957,43.83 321.418,43.83L321.05,43.83L321.014,43.525L330.111,43.525C330.75,43.525 331.449,43.462 332.203,43.336C332.957,43.211 333.49,43.09 333.802,42.968L333.802,46.874L333.496,46.874L333.496,46.318C333.496,45.821 333.326,45.397 332.984,45.043C332.643,44.69 332.232,44.504 331.754,44.486L325.423,44.486L325.423,54.077L330.668,54.077C331.08,54.054 331.431,53.897 331.718,53.609C332.01,53.322 332.158,52.96 332.158,52.523L332.158,52.092L332.472,52.092L332.472,56.995L332.158,56.995L332.158,56.528C332.158,56.115 332.017,55.764 331.736,55.477C331.46,55.185 331.117,55.028 330.703,55.01L325.423,55.01L325.423,64.286L329.859,64.286C331.39,64.286 332.562,63.946 333.371,63.263C334.179,62.581 334.848,61.566 335.382,60.219L335.697,60.219L333.901,65.247L321.014,65.247L321.014,64.933L321.418,64.933ZM349.117,43.525C352.426,43.525 355.111,44.526 357.172,46.524C359.231,48.518 360.261,51.14 360.261,54.391C360.261,57.637 359.231,60.259 357.172,62.257C355.111,64.251 352.426,65.247 349.117,65.247L338.593,65.247L338.593,64.933L338.997,64.933C339.535,64.933 339.995,64.744 340.379,64.367C340.761,63.986 340.963,63.523 340.981,62.985L340.981,45.599C340.981,45.103 340.779,44.683 340.379,44.342C339.978,44.001 339.517,43.83 338.997,43.83L338.628,43.83L338.593,43.525L349.117,43.525ZM343.002,44.45L343.002,64.313L349.117,64.313C350.852,64.313 352.388,63.901 353.724,63.074C355.057,62.248 356.09,61.088 356.821,59.59C357.558,58.088 357.926,56.353 357.926,54.382C357.926,51.407 357.113,49.009 355.493,47.189C353.87,45.364 351.743,44.45 349.117,44.45L343.002,44.45ZM367.721,49.703C367.081,48.937 366.76,48.176 366.76,47.422C366.76,46.663 366.938,46.01 367.29,45.464C367.638,44.914 368.206,44.448 368.996,44.064C369.78,43.682 370.669,43.489 371.663,43.489L384.388,43.489C385.028,43.489 385.735,43.43 386.507,43.309C387.284,43.184 387.83,43.058 388.142,42.932L388.142,46.848L387.836,46.812L387.836,46.282C387.836,45.786 387.659,45.357 387.306,44.998C386.952,44.634 386.538,44.441 386.067,44.423L380.167,44.423L380.167,63.012C380.185,63.761 380.518,64.32 381.164,64.69C381.469,64.852 381.797,64.933 382.152,64.933L382.556,64.933L382.556,65.247L375.758,65.247L375.758,64.933L376.162,64.933C376.701,64.933 377.161,64.749 377.545,64.377C377.927,64.006 378.129,63.564 378.147,63.047L378.147,44.423L371.663,44.423C370.011,44.423 368.812,44.951 368.062,46.003C367.667,46.542 367.47,47.108 367.47,47.701C367.47,48.289 367.638,48.902 367.973,49.541L367.721,49.703ZM392.454,46.21C394.668,44.126 397.539,43.085 401.066,43.085C404.591,43.085 407.462,44.126 409.678,46.21C411.891,48.289 413,51.014 413,54.391C413,57.763 411.891,60.486 409.678,62.562C407.462,64.642 404.591,65.678 401.066,65.678C397.539,65.678 394.668,64.642 392.454,62.562C390.238,60.486 389.131,57.763 389.131,54.391C389.131,51.014 390.238,48.289 392.454,46.21ZM394.142,61.898C395.889,63.802 398.192,64.754 401.048,64.754C403.903,64.754 406.205,63.802 407.953,61.898C409.7,59.994 410.576,57.493 410.576,54.391C410.576,51.283 409.7,48.778 407.953,46.874C406.205,44.971 403.903,44.019 401.048,44.019C398.192,44.019 395.889,44.971 394.142,46.874C392.394,48.778 391.52,51.283 391.52,54.391C391.52,57.493 392.394,59.994 394.142,61.898ZM219.475,71.256L220.162,71.256C220.493,71.256 220.94,71.312 221.51,71.424C222.085,71.531 222.614,71.691 223.099,71.903C223.588,72.116 224.066,72.419 224.535,72.812C225.002,73.208 225.401,73.574 225.732,73.913C226.062,74.255 226.397,74.702 226.738,75.254C227.077,75.809 227.354,76.28 227.568,76.667C227.779,77.05 228.015,77.553 228.27,78.175C228.599,78.969 228.865,79.656 229.068,80.234C229.27,80.815 229.379,81.132 229.395,81.184C229.415,81.238 229.445,81.302 229.483,81.376C229.541,81.525 229.589,81.655 229.627,81.766C229.679,81.635 229.806,81.294 230.01,80.745C230.212,80.192 230.401,79.696 230.576,79.252C230.752,78.812 231.023,78.187 231.39,77.377C231.758,76.569 232.093,75.931 232.396,75.462C232.699,74.995 233.09,74.456 233.569,73.85C234.048,73.243 234.523,72.772 234.998,72.437C236.179,71.651 237.428,71.256 238.748,71.256L238.748,71.528C237.721,71.528 236.67,72.07 235.596,73.155C234.521,74.241 233.601,75.553 232.835,77.09C232.073,78.622 231.448,80.214 230.959,81.862C230.475,83.506 230.233,84.909 230.233,86.068L230.233,90.122C230.233,90.783 230.516,91.277 231.087,91.607C231.363,91.772 231.666,91.854 231.997,91.854L232.324,91.854L232.324,92.133L226.315,92.133L226.315,91.854L226.674,91.854C227.131,91.854 227.536,91.69 227.887,91.359C228.238,91.03 228.422,90.625 228.438,90.146L228.438,86.036C228.438,84.807 228.178,83.366 227.663,81.711C227.147,80.057 226.485,78.47 225.677,76.954C224.866,75.434 223.901,74.149 222.78,73.1C221.662,72.052 220.561,71.528 219.475,71.528L219.475,71.256ZM240.576,75.214C242.543,73.363 245.095,72.437 248.229,72.437C251.362,72.437 253.914,73.363 255.883,75.214C257.85,77.062 258.836,79.484 258.836,82.485C258.836,85.482 257.85,87.901 255.883,89.747C253.914,91.595 251.362,92.516 248.229,92.516C245.095,92.516 242.543,91.595 240.576,89.747C238.607,87.901 237.623,85.482 237.623,82.485C237.623,79.484 238.607,77.062 240.576,75.214ZM242.076,89.156C243.629,90.849 245.676,91.694 248.214,91.694C250.751,91.694 252.796,90.849 254.35,89.156C255.902,87.465 256.681,85.242 256.681,82.485C256.681,79.723 255.902,77.497 254.35,75.805C252.796,74.113 250.751,73.267 248.214,73.267C245.676,73.267 243.629,74.113 242.076,75.805C240.522,77.497 239.746,79.723 239.746,82.485C239.746,85.242 240.522,87.465 242.076,89.156ZM279.74,73.1L279.302,73.1C278.913,73.1 278.575,73.225 278.288,73.475C278.005,73.726 277.857,74.033 277.841,74.4L277.841,85.318C277.841,87.472 277.159,89.212 275.798,90.537C274.436,91.858 272.624,92.516 270.364,92.516C268.101,92.516 266.265,91.86 264.857,90.545C263.452,89.233 262.75,87.501 262.75,85.35L262.75,74.48C262.75,73.928 262.511,73.523 262.032,73.267C261.812,73.155 261.565,73.1 261.289,73.1L260.851,73.1L260.851,72.828L266.445,72.828L266.445,73.1L266.006,73.1C265.601,73.1 265.26,73.225 264.985,73.475C264.707,73.726 264.562,74.041 264.545,74.424L264.545,84.959C264.545,86.966 265.082,88.586 266.158,89.819C267.231,91.048 268.671,91.662 270.475,91.662C272.279,91.662 273.739,91.08 274.857,89.915C275.978,88.745 276.541,87.213 276.541,85.318L276.541,74.424C276.524,74.041 276.377,73.726 276.101,73.475C275.824,73.225 275.483,73.1 275.08,73.1L274.641,73.1L274.641,72.828L279.74,72.828L279.74,73.1ZM291.3,84.799C290.347,86.05 289.872,87.401 289.872,88.853C289.872,90.583 290.598,91.924 292.051,92.875C292.896,93.444 293.856,93.729 294.931,93.729C296.005,93.729 296.939,93.518 297.733,93.099C299.217,92.327 300.051,91.032 300.239,89.212C300.254,89.081 300.263,88.949 300.263,88.821C300.263,88.141 300.073,87.407 299.696,86.618C299.323,85.827 298.714,85.101 297.868,84.44L292.905,80.522C291.819,79.676 291.276,78.582 291.276,77.242C291.276,75.897 291.707,74.76 292.569,73.834C293.435,72.904 294.604,72.437 296.073,72.437C296.807,72.437 297.607,72.531 298.475,72.717L299.576,72.717L299.632,76.108L299.353,76.108C299.337,75.227 299.019,74.532 298.403,74.025C297.784,73.521 297.011,73.267 296.081,73.267C295.155,73.267 294.377,73.576 293.75,74.193C293.128,74.811 292.817,75.604 292.817,76.571C292.817,77.535 293.22,78.335 294.03,78.973L299.137,83.003C301.158,84.606 302.17,86.537 302.17,88.797C302.17,90.489 301.5,91.942 300.159,93.155C298.997,94.202 297.453,94.727 295.522,94.727C294.345,94.727 293.297,94.506 292.378,94.064C290.648,93.255 289.611,91.878 289.266,89.931C289.206,89.633 289.178,89.26 289.178,88.813C289.178,88.362 289.305,87.744 289.561,86.962C289.82,86.18 290.319,85.396 291.053,84.608L291.3,84.799ZM305.168,91.854C305.647,91.854 306.057,91.686 306.398,91.351C306.737,91.012 306.916,90.601 306.933,90.122L306.933,74.672C306.933,74.231 306.757,73.858 306.405,73.554C306.059,73.251 305.647,73.1 305.168,73.1L304.842,73.1L304.809,72.828L312.894,72.828C313.463,72.828 314.083,72.772 314.753,72.661C315.424,72.549 315.896,72.441 316.174,72.334L316.174,75.805L315.902,75.805L315.902,75.31C315.902,74.869 315.751,74.492 315.447,74.177C315.144,73.864 314.779,73.698 314.354,73.682L308.728,73.682L308.728,82.206L313.388,82.206C313.756,82.186 314.067,82.046 314.322,81.79C314.582,81.535 314.713,81.214 314.713,80.825L314.713,80.442L314.993,80.442L314.993,84.799L314.713,84.799L314.713,84.384C314.713,84.017 314.588,83.706 314.338,83.45C314.093,83.191 313.787,83.051 313.421,83.036L308.728,83.036L308.728,91.279L312.67,91.279C314.031,91.279 315.072,90.976 315.791,90.369C316.509,89.763 317.104,88.861 317.578,87.664L317.858,87.664L316.261,92.133L304.809,92.133L304.809,91.854L305.168,91.854ZM326.113,73.682L324.35,73.682L324.35,90.122C324.35,90.601 324.519,91.012 324.861,91.351C325.2,91.686 325.619,91.854 326.113,91.854L326.448,91.854L326.472,92.133L320.431,92.133L320.431,91.854L320.79,91.854C321.269,91.854 321.679,91.69 322.02,91.359C322.359,91.03 322.538,90.625 322.554,90.146L322.554,74.839C322.538,74.36 322.359,73.952 322.02,73.611C321.679,73.271 321.269,73.1 320.79,73.1L320.431,73.1L320.431,72.828L327.877,72.828C329.553,72.828 330.866,73.295 331.82,74.225C332.777,75.15 333.256,76.354 333.256,77.832C333.256,79.313 332.801,80.592 331.892,81.671C330.982,82.746 329.875,83.283 328.572,83.283C328.847,83.41 329.172,83.664 329.545,84.041C329.922,84.42 330.259,84.811 330.559,85.214C332.139,87.477 333.168,88.869 333.647,89.396C334.126,89.918 334.465,90.274 334.669,90.465C334.87,90.657 335.091,90.847 335.331,91.032C335.571,91.213 335.806,91.359 336.041,91.471C336.578,91.726 337.151,91.854 337.757,91.854L337.757,92.133L336.241,92.133C335.447,92.133 334.71,91.994 334.03,91.71C333.348,91.423 332.837,91.127 332.498,90.825C332.157,90.521 331.861,90.23 331.612,89.947C331.367,89.66 330.683,88.707 329.561,87.089C328.438,85.467 327.784,84.542 327.598,84.312C327.416,84.085 327.225,83.861 327.024,83.642C326.437,83.016 325.85,82.7 325.259,82.7L325.259,82.421C325.407,82.443 325.603,82.453 325.842,82.453C326.082,82.453 326.373,82.443 326.72,82.421C329.002,82.369 330.435,81.413 331.022,79.556C331.133,79.189 331.189,78.846 331.189,78.527L331.189,77.904C331.152,76.671 330.83,75.677 330.223,74.927C329.617,74.173 328.799,73.766 327.773,73.706C327.331,73.69 326.778,73.682 326.113,73.682ZM350.588,72.828L356.135,72.828L356.135,73.1L355.887,73.1C355.424,73.1 354.971,73.243 354.53,73.53C354.094,73.818 353.744,74.247 353.485,74.815L346.837,89.675C346.155,91.166 345.815,92.113 345.815,92.516L345.568,92.516L337.819,74.839C337.564,74.255 337.209,73.818 336.758,73.53C336.305,73.243 335.85,73.1 335.393,73.1L335.17,73.1L335.17,72.828L341.378,72.828L341.378,73.1L341.131,73.1C340.742,73.1 340.452,73.225 340.261,73.475C340.069,73.726 339.974,73.957 339.974,74.169C339.974,74.377 340.018,74.592 340.11,74.815L345.871,89.268L351.889,74.815C351.963,74.592 352.001,74.377 352.001,74.169C352.001,73.957 351.901,73.726 351.705,73.475C351.514,73.225 351.222,73.1 350.836,73.1L350.588,73.1L350.588,72.828ZM357.852,91.854C358.331,91.854 358.74,91.686 359.081,91.351C359.42,91.012 359.6,90.601 359.616,90.122L359.616,74.815C359.6,74.337 359.42,73.933 359.081,73.602C358.74,73.267 358.331,73.1 357.852,73.1L357.493,73.1L357.493,72.828L363.534,72.828L363.534,73.1L363.175,73.1C362.696,73.1 362.286,73.267 361.946,73.602C361.611,73.933 361.432,74.337 361.412,74.815L361.412,90.122C361.412,90.601 361.583,91.012 361.93,91.351C362.282,91.686 362.696,91.854 363.175,91.854L363.534,91.854L363.534,92.133L357.493,92.133L357.493,91.854L357.852,91.854ZM376.121,92.516C373.217,92.5 370.848,91.575 369.019,89.739C367.187,87.899 366.274,85.475 366.274,82.469C366.274,79.464 367.187,77.04 369.019,75.198C370.848,73.359 373.272,72.437 376.289,72.437C378.751,72.437 380.93,73.064 382.825,74.313L383.376,78.207L383.128,78.207C382.723,76.627 381.904,75.41 380.671,74.552C379.441,73.696 377.981,73.267 376.289,73.267C373.879,73.267 371.952,74.105 370.511,75.781C369.069,77.453 368.349,79.668 368.349,82.429C368.349,85.186 369.059,87.405 370.48,89.084C371.904,90.766 373.785,91.637 376.121,91.694C378.181,91.694 379.898,91.134 381.277,90.01C382.765,88.797 383.667,86.822 383.982,84.081L384.206,84.081L383.871,88.406C382.199,91.148 379.617,92.516 376.121,92.516ZM387.588,91.854C388.066,91.854 388.476,91.686 388.817,91.351C389.156,91.012 389.336,90.601 389.352,90.122L389.352,74.672C389.352,74.231 389.176,73.858 388.825,73.554C388.478,73.251 388.066,73.1 387.588,73.1L387.261,73.1L387.228,72.828L395.313,72.828C395.882,72.828 396.502,72.772 397.172,72.661C397.843,72.549 398.316,72.441 398.593,72.334L398.593,75.805L398.321,75.805L398.321,75.31C398.321,74.869 398.17,74.492 397.867,74.177C397.563,73.864 397.198,73.698 396.773,73.682L391.147,73.682L391.147,82.206L395.807,82.206C396.175,82.186 396.486,82.046 396.742,81.79C397.001,81.535 397.132,81.214 397.132,80.825L397.132,80.442L397.412,80.442L397.412,84.799L397.132,84.799L397.132,84.384C397.132,84.017 397.007,83.706 396.757,83.45C396.512,83.191 396.207,83.051 395.84,83.036L391.147,83.036L391.147,91.279L395.089,91.279C396.45,91.279 397.491,90.976 398.21,90.369C398.928,89.763 399.523,88.861 399.997,87.664L400.277,87.664L398.68,92.133L387.228,92.133L387.228,91.854L387.588,91.854ZM403.152,91C403.092,90.744 403.064,90.25 403.064,89.515C403.064,88.777 403.202,87.995 403.479,87.169L403.726,87.169C403.71,87.373 403.702,87.574 403.702,87.776C403.702,88.899 404.041,89.833 404.724,90.577C405.404,91.323 406.304,91.694 407.422,91.694C408.58,91.694 409.532,91.347 410.278,90.649C411.022,89.947 411.396,89.069 411.396,88.015C411.396,86.958 411.037,86.096 410.319,85.429L405.027,80.522C404.032,79.602 403.535,78.49 403.535,77.186C403.535,75.877 403.97,74.76 404.844,73.834C405.722,72.904 406.903,72.437 408.387,72.437C409.089,72.437 409.881,72.531 410.765,72.717L411.834,72.717L411.834,76.108L411.587,76.108C411.587,75.247 411.288,74.558 410.693,74.041C410.097,73.527 409.329,73.267 408.387,73.267C407.449,73.267 406.665,73.582 406.033,74.209C405.398,74.831 405.083,75.614 405.083,76.555C405.083,77.493 405.45,78.299 406.184,78.973L411.619,83.993C412.539,84.839 413,86 413,87.472C413,88.941 412.529,90.15 411.587,91.096C410.65,92.043 409.401,92.516 407.836,92.516C407.026,92.516 406.169,92.391 405.258,92.141C404.349,91.898 403.647,91.517 403.152,91Z" style="fill:rgb(158,33,97);"/>
    </g>
</svg>
