<?xml version="1.0" encoding="UTF-8" standalone="no"?>
<!DOCTYPE svg PUBLIC "-//W3C//DTD SVG 1.1//EN" "http://www.w3.org/Graphics/SVG/1.1/DTD/svg11.dtd">
<svg width="100%" height="100%" viewBox="0 0 453 16" version="1.1" xmlns="http://www.w3.org/2000/svg" xmlns:xlink="http://www.w3.org/1999/xlink" xml:space="preserve" xmlns:serif="http://www.serif.com/" style="fill-rule:evenodd;clip-rule:evenodd;stroke-linejoin:round;stroke-miterlimit:2;">
    <g transform="matrix(1,0,0,1,653.2,-379.537)">
        <path d="M-426.989,379.537L-419.346,387.18L-426.989,394.823L-434.632,387.18L-426.989,379.537ZM-434.809,389.926C-438.361,389.939 -441.903,389.946 -445.42,389.904C-446.962,389.886 -448.497,389.834 -450.028,389.794C-499.026,388.515 -653.2,387.18 -653.2,387.18C-653.2,387.18 -499.026,385.845 -450.028,384.566C-448.497,384.526 -446.962,384.474 -445.421,384.456C-441.903,384.414 -438.361,384.42 -434.809,384.433L-437.556,387.18L-434.809,389.926ZM-419.167,384.435C-415.616,384.423 -412.075,384.417 -408.558,384.455C-407.016,384.472 -405.481,384.517 -403.95,384.556C-354.95,385.786 -200.778,387.18 -200.778,387.18C-200.778,387.18 -354.95,388.574 -403.95,389.804C-405.481,389.843 -407.016,389.888 -408.557,389.904C-412.075,389.943 -415.616,389.937 -419.167,389.925L-416.422,387.18L-419.167,384.435Z" style="fill:rgb(158,33,97);"/>
    </g>
</svg>
